<svg xmlns="http://www.w3.org/2000/svg" viewBox="13643 6070 129.832 120">
  <defs>
    <style>
      .cls-1 {
        fill: #fff;
      }
    </style>
  </defs>
  <g id="aquarobics" transform="translate(13643 6050.613)">
    <g id="Group_22" data-name="Group 22" transform="translate(0 42.012)">
      <g id="Group_21" data-name="Group 21" transform="translate(0 0)">
        <path id="Path_21" data-name="Path 21" class="cls-1" d="M100.62,141.061H76.993L71.244,123.8a3.075,3.075,0,0,0-3.15-2.218,3.236,3.236,0,0,0-3.049,2.352L55.573,157.08,45.366,111.145a3.247,3.247,0,0,0-6.182-.5L27.012,141.061H3.246a3.246,3.246,0,1,0,0,6.492H29.212a3.235,3.235,0,0,0,3.012-2.041l9.084-22.7,10.7,48.168a3.251,3.251,0,0,0,3.075,2.543h.1a3.242,3.242,0,0,0,3.118-2.352L68.4,135.813l3.17,9.521a3.252,3.252,0,0,0,3.081,2.218H100.62a3.246,3.246,0,0,0,0-6.492Z" transform="translate(0 -108.608)"/>
      </g>
    </g>
    <g id="Group_24" data-name="Group 24" transform="translate(0.128 19.387)">
      <g id="Group_23" data-name="Group 23" transform="translate(0 0)">
        <path id="Path_22" data-name="Path 22" class="cls-1" d="M118.8,30.795A38.667,38.667,0,0,0,65.292,29.51,38.737,38.737,0,0,0,1.742,67.979H8.493A32.243,32.243,0,0,1,60.549,33.967L65.292,38.4l4.745-4.436a32.187,32.187,0,0,1,44.173,1.42,32.495,32.495,0,0,1,0,45.9L65.292,130.206,22.541,87.454H13.359l51.933,51.933L118.8,85.879A38.952,38.952,0,0,0,118.8,30.795Z" transform="translate(-0.504 -19.387)"/>
      </g>
    </g>
  </g>
</svg>
