<svg xmlns="http://www.w3.org/2000/svg" viewBox="13121 6070 150 120">
  <defs>
    <style>
      .cls-1 {
        fill: #fff;
      }
    </style>
  </defs>
  <g id="aquaFit-training" transform="translate(12934 5994)">
    <g id="Group_20" data-name="Group 20" transform="translate(187 76)">
      <path id="Path_20" data-name="Path 20" class="cls-1" d="M142.5,68h-5V55.5A7.509,7.509,0,0,0,130,48H120a7.509,7.509,0,0,0-7.5,7.5v20h-5.885l-.55-1.4A17.4,17.4,0,0,0,89.778,63H89.54A7.431,7.431,0,0,0,77.5,59.95a7.385,7.385,0,0,0-10,0,7.385,7.385,0,0,0-10,0A7.468,7.468,0,0,0,45,65.5v10H37.5v-20A7.509,7.509,0,0,0,30,48H20a7.509,7.509,0,0,0-7.5,7.5V68h-5A7.509,7.509,0,0,0,0,75.5v25A7.509,7.509,0,0,0,7.5,108h5v12.5A7.509,7.509,0,0,0,20,128H30a7.509,7.509,0,0,0,7.5-7.5v-20h5.67l1.947,6.162a2.511,2.511,0,0,0,.4.777l6.673,8.632L47.92,160.987A6.4,6.4,0,0,0,54.295,168h33.89a6.407,6.407,0,0,0,6.373-7.045L90.19,117.278a1.4,1.4,0,0,1,.482-1.205l13.717-11.757a8.851,8.851,0,0,0,2.555-3.815H112.5v20A7.509,7.509,0,0,0,120,128h10a7.509,7.509,0,0,0,7.5-7.5V108h5a7.509,7.509,0,0,0,7.5-7.5v-25A7.509,7.509,0,0,0,142.5,68Zm-130,35h-5A2.5,2.5,0,0,1,5,100.5v-25A2.5,2.5,0,0,1,7.5,73h5Zm20-25v42.5A2.5,2.5,0,0,1,30,123H20a2.5,2.5,0,0,1-2.5-2.5v-65A2.5,2.5,0,0,1,20,53H30a2.5,2.5,0,0,1,2.5,2.5ZM80,65.5a2.5,2.5,0,1,1,5,0V80.232a2.893,2.893,0,0,1-1.14,2.308,2.552,2.552,0,0,1-.218.148,1.976,1.976,0,0,1-.422.165,2.319,2.319,0,0,1-.5.1,3.5,3.5,0,0,1-1.02-.115,2.447,2.447,0,0,1-.565-.3,2.554,2.554,0,0,1-.32-.215A2.463,2.463,0,0,1,80,80.5v-15Zm-10,0a2.5,2.5,0,0,1,5,0v15a2.5,2.5,0,0,1-5,0Zm-10,0a2.5,2.5,0,1,1,5,0v15a2.5,2.5,0,1,1-5,0ZM50,78V65.5a2.5,2.5,0,1,1,5,0v15a1.8,1.8,0,0,1-.393,1.263,2.54,2.54,0,0,1-.43.565,2.234,2.234,0,0,1-1.3.6,2.588,2.588,0,0,1-.607.03,2.272,2.272,0,0,1-.49-.1,2.169,2.169,0,0,1-.427-.167,1.767,1.767,0,0,1-.212-.145A2.9,2.9,0,0,1,50,80.23ZM37.5,95.5v-15H45a7.474,7.474,0,0,0,3.7,6.43c.135.083.275.15.415.225a7.051,7.051,0,0,0,.683.32,6.847,6.847,0,0,0,.815.253c.165.042.325.1.5.13.052.01.1.03.15.04.175.03.348.012.523.03.24.022.473.072.718.072.072,0,.14-.02.21-.023.23-.007.452-.042.677-.067a7.3,7.3,0,0,0,.882-.145c.215-.053.42-.125.63-.2a7.768,7.768,0,0,0,.82-.325c.2-.1.4-.208.592-.323a7.742,7.742,0,0,0,.72-.488c.1-.08.225-.135.325-.22.05-.042.1-.082.145-.125.145.13.315.233.47.35s.3.243.47.35a7.806,7.806,0,0,0,.74.4c.168.083.325.177.5.248a7.4,7.4,0,0,0,.9.28c.155.04.3.1.46.133a7.275,7.275,0,0,0,2.915,0c.162-.033.31-.093.467-.135a7.738,7.738,0,0,0,.9-.277c.177-.072.337-.168.507-.253a7.641,7.641,0,0,0,.732-.4c.167-.107.318-.233.473-.353s.322-.22.467-.35c.145.13.313.23.468.35s.307.247.475.355a7.647,7.647,0,0,0,.732.4c.17.085.33.18.507.252a7.146,7.146,0,0,0,.9.278c.157.043.307.1.467.135A7.718,7.718,0,0,0,72.5,88a7.564,7.564,0,0,0,1.458-.147c.158-.033.305-.09.46-.133a7.719,7.719,0,0,0,.9-.28c.175-.07.332-.165.5-.25a7.24,7.24,0,0,0,.738-.4c.165-.107.313-.23.47-.35s.325-.22.47-.35c.048.042.1.085.145.125.1.085.22.14.323.22a7.727,7.727,0,0,0,.728.493c.19.113.38.22.58.315a7.611,7.611,0,0,0,.85.337c.2.068.393.135.6.185a7.715,7.715,0,0,0,.933.152c.21.025.415.057.628.062.075,0,.145.023.223.023a7.007,7.007,0,0,0,.73-.075c.17-.015.34,0,.513-.028.057-.01.11-.03.168-.04.112-.023.22-.055.33-.082a6.809,6.809,0,0,0,.93-.29c.165-.063.325-.13.482-.205.175-.085.345-.18.513-.277a7.487,7.487,0,0,0,3.65-4.9A2.434,2.434,0,0,1,90,83v8.965L86.465,95.5Zm65,2.052a3.912,3.912,0,0,1-1.362,2.967L87.423,112.275a6.411,6.411,0,0,0-2.207,5.5l4.368,43.678a1.4,1.4,0,0,1-1.4,1.545H54.3a1.407,1.407,0,0,1-1.4-1.54l4.37-45.9a2.512,2.512,0,0,0-.51-1.768l-7.005-9.06L48.413,100.5H86.465A5.027,5.027,0,0,0,90,99.035L93.535,95.5A4.966,4.966,0,0,0,95,91.965V83a7.49,7.49,0,0,0-5-7.04V68a12.422,12.422,0,0,1,11.41,7.925l.94,2.363a1.432,1.432,0,0,1,.15.63Zm10-2.052h-5v-15h5Zm20-25v50A2.5,2.5,0,0,1,130,123H120a2.5,2.5,0,0,1-2.5-2.5v-65A2.5,2.5,0,0,1,120,53h10a2.5,2.5,0,0,1,2.5,2.5Zm12.5,30a2.5,2.5,0,0,1-2.5,2.5h-5V73h5a2.5,2.5,0,0,1,2.5,2.5Z" transform="translate(0 -48)"/>
    </g>
  </g>
</svg>
