<svg xmlns="http://www.w3.org/2000/svg" viewBox="12660 3219 125 125">
  <defs>
    <style>
      .cls-1 {
        fill: #fff;
      }
    </style>
  </defs>
  <g id="discover-scuba" transform="translate(12660 3219)">
    <path id="Path_15" data-name="Path 15" class="cls-1" d="M92.16,22.685A26.848,26.848,0,0,0,78.25,19h-41a26.842,26.842,0,0,0-13.91,3.685c-6.11,3.69-9.34,8.9-9.34,15.065l.012,16.458a10.348,10.348,0,0,0,2.758,7.465c3.148,3.479,8.525,5.244,16.019,5.244.848-.017,20.785-.548,20.794-14.571l.013-.013a4.167,4.167,0,0,1,8.333-.01l-.01.01c0,14.035,19.946,14.567,20.833,14.583,7.456,0,12.833-1.765,15.981-5.244a10.3,10.3,0,0,0,2.769-7.256V37.75C101.5,31.585,98.268,26.375,92.16,22.685Zm3.415,36.267c-2.31,2.483-6.746,3.8-12.787,3.8-.167,0-16.694-.425-16.706-10.406l.012-.01a8.333,8.333,0,0,0-16.667-.012l-.01.012c0,9.958-16.54,10.415-16.667,10.417-6.079,0-10.515-1.315-12.825-3.8a6.227,6.227,0,0,1-1.758-4.535V37.75c0-4.694,2.465-8.56,7.327-11.5A22.692,22.692,0,0,1,37.25,23.167h41a22.7,22.7,0,0,1,11.756,3.085c4.862,2.935,7.327,6.8,7.327,11.5L97.343,54.6A6.237,6.237,0,0,1,95.575,58.952Z" transform="translate(15.157 20.583)"/>
    <path id="Path_16" data-name="Path 16" class="cls-1" d="M125,54.513A23.289,23.289,0,0,0,101.735,31.25H44.1A23.289,23.289,0,0,0,20.833,54.513l0,3.519-.017.2v.106H16.667V0H0V97.917a25.028,25.028,0,0,0,25,25H46.638A4.712,4.712,0,0,0,50.548,125H74.454a4.719,4.719,0,0,0,4.713-4.715V108.879a4.719,4.719,0,0,0-4.715-4.713h-23.9a4.715,4.715,0,0,0-3.91,2.083H25a8.342,8.342,0,0,1-8.333-8.333V70.833h4.156v3.892a18.747,18.747,0,0,0,4.923,13.123c4.794,5.3,12.3,7.985,22.352,7.985,10.506-.2,19.769-4.121,24.842-10.5,5,6.377,14.265,10.3,24.965,10.5,9.91,0,17.367-2.687,22.16-7.985A18.7,18.7,0,0,0,124.988,74.8ZM12.5,4.167v12.5H4.167V4.167ZM75,108.881v11.406a.548.548,0,0,1-.548.546h-23.9a.517.517,0,0,1-.463-.344l-.023-.1L50,109.025l.069-.31a.52.52,0,0,1,.479-.381H74.454A.548.548,0,0,1,75,108.881Zm-50,1.535H45.833v8.333H25A20.857,20.857,0,0,1,4.167,97.917V20.833H12.5V97.917A12.513,12.513,0,0,0,25,110.417Zm-8.11-43.75V62.5h3.931v4.167ZM120.833,62.5h-.012V74.875a14.531,14.531,0,0,1-3.848,10.177c-3.969,4.39-10.383,6.615-19.185,6.615-9.129-.169-17.4-3.581-21.569-8.9a4.179,4.179,0,0,0-6.627,0c-4.175,5.319-12.442,8.731-21.542,8.9-8.779,0-15.246-2.225-19.219-6.615A14.583,14.583,0,0,1,24.985,74.8l0-3.967H25v-12.5h0l0-3.821a19.118,19.118,0,0,1,19.1-19.1h57.64a19.118,19.118,0,0,1,19.1,19.1Z"/>
    <path id="Path_17" data-name="Path 17" class="cls-1" d="M30.89,24.611a2.081,2.081,0,0,0-2.946,0l-8.333,8.333a2.083,2.083,0,1,0,2.946,2.946l8.333-8.333A2.081,2.081,0,0,0,30.89,24.611Z" transform="translate(20.583 26)"/>
    <path id="Path_18" data-name="Path 18" class="cls-1" d="M38.194,24.611,23.611,39.194a2.083,2.083,0,1,0,2.946,2.946L41.14,27.557a2.083,2.083,0,0,0-2.946-2.946Z" transform="translate(24.916 26)"/>
  </g>
</svg>
