<svg xmlns="http://www.w3.org/2000/svg" viewBox="13123 1654 145.229 160">
  <defs>
    <style>
      .cls-1 {
        fill: #FFFFFF;
      }
    </style>
  </defs>
  <g id="get-fun" transform="translate(13099.367 1654.001)">
    <path id="Path_1" data-name="Path 1" class="cls-1" d="M108.045,227.68a47.062,47.062,0,0,0-12.519-21.248,47.061,47.061,0,0,0-21.249-12.519,9.862,9.862,0,0,0-11.308,5.14L41.03,243.477A9.06,9.06,0,0,0,42.748,253.9l1.04,1.04L27.347,271.38a12.724,12.724,0,0,0,17.994,17.994L59.4,275.311a8.036,8.036,0,0,1,11.365,11.365,2.344,2.344,0,0,0,0,3.315,2.422,2.422,0,0,0,3.314,0,12.4,12.4,0,0,0,3.714-9,12.711,12.711,0,0,0-21.708-9L42.026,286.06A8.036,8.036,0,0,1,30.662,274.7L47.1,258.254l.956.955c1.741,1.741,4.866,4.157,10.423,1.718L102.9,238.988A9.859,9.859,0,0,0,108.045,227.68ZM56.405,256.725a4.374,4.374,0,0,1-5.033-.83l-5.311-5.31a4.375,4.375,0,0,1-.83-5.033l4.781-9.681a46.428,46.428,0,0,1,16.073,16.073Zm13.9-6.863A51.112,51.112,0,0,0,52.1,231.656l4.912-9.947a43.846,43.846,0,0,1,13.786,9.455,43.832,43.832,0,0,1,9.455,13.785Zm30.527-15.076-16.37,8.084a48.552,48.552,0,0,0-10.351-15.021A48.544,48.544,0,0,0,59.088,217.5l4.6-9.306a42.153,42.153,0,0,1,18.855,11.227,43.185,43.185,0,0,1,8.479,11.668,2.291,2.291,0,0,0,3.142,1.054A2.344,2.344,0,0,0,95.215,229,49.387,49.387,0,0,0,85.853,216.1,47.081,47.081,0,0,0,65.8,203.916l1.377-2.787a5.155,5.155,0,0,1,5.916-2.682,42.364,42.364,0,0,1,19.124,11.3,42.362,42.362,0,0,1,11.3,19.123A5.157,5.157,0,0,1,100.829,234.786Z" transform="translate(0 -133.096)"/>
    <path id="Path_2" data-name="Path 2" class="cls-1" d="M345.045,199.21a7.829,7.829,0,0,0-3.933-4.576,57.64,57.64,0,0,0-57.187,2.886c-4.7,3.048-3.625,8.936-2.384,10.878h0a7.831,7.831,0,0,0,4.947,3.453,7.97,7.97,0,0,0,1.711.187,7.828,7.828,0,0,0,4.229-1.243A42.185,42.185,0,0,1,334,208.7a7.882,7.882,0,0,0,11.045-9.493Zm-4.638,3.9a3.136,3.136,0,0,1-4.292,1.41,46.893,46.893,0,0,0-46.212,2.326,3.2,3.2,0,0,1-4.385-.93,3.35,3.35,0,0,1,.958-4.463A52.939,52.939,0,0,1,339,198.818,3.445,3.445,0,0,1,340.407,203.111Z" transform="translate(-176.58 -129.53)"/>
    <path id="Path_3" data-name="Path 3" class="cls-1" d="M241.735,4.33a7.882,7.882,0,1,0-14.069,7.112c.533,1.054,1.027,2.145,1.469,3.245a2.344,2.344,0,1,0,4.349-1.749c-.492-1.223-1.042-2.438-1.635-3.611a3.042,3.042,0,0,1,1.41-4.293,3.072,3.072,0,0,1,4.292,1.41,52.936,52.936,0,0,1-2.635,52.521,2.927,2.927,0,0,1-4.463.958,3.337,3.337,0,0,1-.93-4.385,46.737,46.737,0,0,0,6.719-32.67,2.344,2.344,0,1,0-4.628.748,42.054,42.054,0,0,1-6.041,29.4,7.881,7.881,0,0,0,2.4,10.887,8.574,8.574,0,0,0,4.3,1.064,7.539,7.539,0,0,0,6.58-3.448A57.636,57.636,0,0,0,241.735,4.33Z" transform="translate(-137.979 0)"/>
    <path id="Path_4" data-name="Path 4" class="cls-1" d="M361.793,271.906h-6.477a4.546,4.546,0,0,0-4.541,4.541v6.477a4.546,4.546,0,0,0,4.541,4.541h6.477a4.546,4.546,0,0,0,4.541-4.541v-6.477A4.546,4.546,0,0,0,361.793,271.906Zm-.147,10.871h-6.184v-6.184h6.184Z" transform="translate(-224.91 -186.936)"/>
    <path id="Path_5" data-name="Path 5" class="cls-1" d="M177.691,87.805h-6.477a4.547,4.547,0,0,0-4.541,4.541v6.477a4.547,4.547,0,0,0,4.541,4.541h6.477a4.547,4.547,0,0,0,4.541-4.541V92.346A4.546,4.546,0,0,0,177.691,87.805Zm-.146,10.871H171.36V92.492h6.184Z" transform="translate(-98.34 -60.366)"/>
    <ellipse id="Ellipse_1" data-name="Ellipse 1" class="cls-1" cx="2.344" cy="2.344" rx="2.344" ry="2.344" transform="translate(130.514 33.661)"/>
    <ellipse id="Ellipse_2" data-name="Ellipse 2" class="cls-1" cx="2.344" cy="2.344" rx="2.344" ry="2.344" transform="translate(116.949 32.646)"/>
    <ellipse id="Ellipse_3" data-name="Ellipse 3" class="cls-1" cx="2.344" cy="2.344" rx="2.344" ry="2.344" transform="translate(131.527 47.227)"/>
  </g>
</svg>
