<svg xmlns="http://www.w3.org/2000/svg" viewBox="13139 3549 113.461 125">
  <defs>
    <style>
      .cls-1 {
        fill: #fff;
      }
    </style>
  </defs>
  <g id="get-fun-white" transform="translate(13115.367 3549.001)">
    <path id="Path_1" data-name="Path 1" class="cls-1" d="M89.58,220.224a36.767,36.767,0,0,0-9.781-16.6,36.766,36.766,0,0,0-16.6-9.781,7.7,7.7,0,0,0-8.834,4.016l-17.14,34.706a7.078,7.078,0,0,0,1.342,8.143l.813.812L26.535,254.364a9.94,9.94,0,0,0,14.058,14.058l10.986-10.987a6.278,6.278,0,0,1,8.879,8.879,1.831,1.831,0,0,0,0,2.59,1.892,1.892,0,0,0,2.589,0,9.689,9.689,0,0,0,2.9-7.029,9.931,9.931,0,0,0-16.959-7.029L38,265.833a6.278,6.278,0,0,1-8.879-8.879l12.845-12.845.747.746c1.36,1.36,3.8,3.248,8.143,1.342l34.705-17.14A7.7,7.7,0,0,0,89.58,220.224ZM49.236,242.914a3.417,3.417,0,0,1-3.932-.648l-4.149-4.148a3.418,3.418,0,0,1-.648-3.932l3.735-7.563A36.272,36.272,0,0,1,56.8,239.18Zm10.857-5.362A39.931,39.931,0,0,0,45.87,223.329l3.838-7.771a34.254,34.254,0,0,1,10.77,7.387,34.244,34.244,0,0,1,7.386,10.77Zm23.849-11.778-12.789,6.316a37.931,37.931,0,0,0-8.086-11.735,37.926,37.926,0,0,0-11.735-8.087L54.923,205a32.932,32.932,0,0,1,14.73,8.771,33.738,33.738,0,0,1,6.624,9.116,1.79,1.79,0,0,0,2.455.823,1.832,1.832,0,0,0,.823-2.455,38.583,38.583,0,0,0-7.314-10.074,36.782,36.782,0,0,0-15.67-9.522l1.075-2.178a4.027,4.027,0,0,1,4.622-2.1,33.1,33.1,0,0,1,14.94,8.828,33.1,33.1,0,0,1,8.828,14.94A4.029,4.029,0,0,1,83.942,225.775Z" transform="translate(0 -146.329)"/>
    <path id="Path_2" data-name="Path 2" class="cls-1" d="M330.92,196.847a6.117,6.117,0,0,0-3.072-3.575,45.031,45.031,0,0,0-44.677,2.254c-3.672,2.381-2.832,6.981-1.863,8.5h0a6.118,6.118,0,0,0,3.865,2.7,6.227,6.227,0,0,0,1.337.146,6.115,6.115,0,0,0,3.3-.971,32.957,32.957,0,0,1,32.478-1.635,6.158,6.158,0,0,0,8.629-7.417Zm-3.623,3.047a2.45,2.45,0,0,1-3.353,1.1,36.635,36.635,0,0,0-36.1,1.817,2.5,2.5,0,0,1-3.426-.727,2.617,2.617,0,0,1,.748-3.487,41.358,41.358,0,0,1,41.033-2.059A2.691,2.691,0,0,1,327.3,199.894Z" transform="translate(-194.138 -142.409)"/>
    <path id="Path_3" data-name="Path 3" class="cls-1" d="M237.928,3.383a6.158,6.158,0,1,0-10.992,5.556c.416.823.8,1.676,1.148,2.535a1.831,1.831,0,1,0,3.4-1.366c-.384-.955-.814-1.9-1.277-2.821a2.377,2.377,0,0,1,1.1-3.354,2.4,2.4,0,0,1,3.353,1.1A41.356,41.356,0,0,1,232.6,46.068a2.287,2.287,0,0,1-3.487.748,2.607,2.607,0,0,1-.726-3.426,36.513,36.513,0,0,0,5.249-25.523,1.831,1.831,0,1,0-3.615.584,32.854,32.854,0,0,1-4.72,22.967,6.157,6.157,0,0,0,1.874,8.505,6.7,6.7,0,0,0,3.358.831,5.89,5.89,0,0,0,5.141-2.694A45.028,45.028,0,0,0,237.928,3.383Z" transform="translate(-151.699)"/>
    <path id="Path_4" data-name="Path 4" class="cls-1" d="M359.383,271.906h-5.06a3.552,3.552,0,0,0-3.548,3.548v5.06a3.552,3.552,0,0,0,3.548,3.548h5.06a3.552,3.552,0,0,0,3.548-3.548v-5.06A3.552,3.552,0,0,0,359.383,271.906Zm-.115,8.493h-4.831v-4.831h4.831Z" transform="translate(-247.273 -205.523)"/>
    <path id="Path_5" data-name="Path 5" class="cls-1" d="M175.281,87.805h-5.06a3.552,3.552,0,0,0-3.548,3.548v5.06a3.552,3.552,0,0,0,3.548,3.548h5.06a3.552,3.552,0,0,0,3.548-3.548v-5.06A3.552,3.552,0,0,0,175.281,87.805Zm-.114,8.493h-4.831V91.467h4.831Z" transform="translate(-108.118 -66.369)"/>
    <ellipse id="Ellipse_1" data-name="Ellipse 1" class="cls-1" cx="1.831" cy="1.831" rx="1.831" ry="1.831" transform="translate(107.134 26.298)"/>
    <ellipse id="Ellipse_2" data-name="Ellipse 2" class="cls-1" cx="1.831" cy="1.831" rx="1.831" ry="1.831" transform="translate(96.536 25.505)"/>
    <ellipse id="Ellipse_3" data-name="Ellipse 3" class="cls-1" cx="1.831" cy="1.831" rx="1.831" ry="1.831" transform="translate(107.925 36.896)"/>
  </g>
</svg>
