<svg xmlns="http://www.w3.org/2000/svg" viewBox="13660 1232 194.528 120">
  <defs>
    <style>
      .cls-1 {
        fill: #FFFFFF;
      }
    </style>
  </defs>
  <g id="get-swimming" transform="translate(13660 1133.92)">
    <path id="Path_6" data-name="Path 6" class="cls-1" d="M462.661,243.491a54.483,54.483,0,0,0-23.776,4.842,2.889,2.889,0,1,0,2.183,5.35,48.947,48.947,0,0,1,21.593-4.414,2.889,2.889,0,1,0,0-5.778Z" transform="translate(-271.021 -90.164)"/>
    <path id="Path_7" data-name="Path 7" class="cls-1" d="M232.326,374.351a54.481,54.481,0,0,0-23.777,4.842,48.945,48.945,0,0,1-21.593,4.414,48.946,48.946,0,0,1-21.593-4.414,54.476,54.476,0,0,0-23.777-4.842,54.48,54.48,0,0,0-23.776,4.842,48.945,48.945,0,0,1-21.593,4.414,48.956,48.956,0,0,1-21.6-4.414c-1.638-.668-3.332-1.359-5.171-2a2.889,2.889,0,0,0-1.888,5.461c1.69.584,3.237,1.216,4.876,1.884a54.485,54.485,0,0,0,23.78,4.842,54.483,54.483,0,0,0,23.776-4.842,48.944,48.944,0,0,1,21.593-4.414,48.949,48.949,0,0,1,21.594,4.414,54.474,54.474,0,0,0,23.776,4.842,54.478,54.478,0,0,0,23.776-4.842,48.948,48.948,0,0,1,21.594-4.414,2.889,2.889,0,1,0,0-5.778Z" transform="translate(-40.686 -171.305)"/>
    <path id="Path_8" data-name="Path 8" class="cls-1" d="M18.147,374.782a68.554,68.554,0,0,0-7.986-.431,70.4,70.4,0,0,0-7.578.383,2.889,2.889,0,1,0,.618,5.745,64.73,64.73,0,0,1,6.96-.35,62.788,62.788,0,0,1,7.318.392,3,3,0,0,0,.338.02,2.889,2.889,0,0,0,.331-5.759Z" transform="translate(-0.002 -171.305)"/>
    <path id="Path_9" data-name="Path 9" class="cls-1" d="M191.641,318.176a48.939,48.939,0,0,1-21.6-4.416,54.462,54.462,0,0,0-23.776-4.844,54.466,54.466,0,0,0-23.777,4.844,48.937,48.937,0,0,1-21.6,4.416A48.928,48.928,0,0,1,79.3,313.76a54.453,54.453,0,0,0-23.776-4.844,54.468,54.468,0,0,0-23.777,4.844,48.924,48.924,0,0,1-21.593,4.416,64.575,64.575,0,0,1-6.956-.35,2.889,2.889,0,1,0-.618,5.745,70.344,70.344,0,0,0,7.573.383,54.467,54.467,0,0,0,23.777-4.844,48.923,48.923,0,0,1,21.593-4.416,48.924,48.924,0,0,1,21.593,4.416,54.458,54.458,0,0,0,23.777,4.844,54.473,54.473,0,0,0,23.78-4.845,48.927,48.927,0,0,1,21.593-4.416,48.932,48.932,0,0,1,21.593,4.416,54.466,54.466,0,0,0,23.781,4.845,2.889,2.889,0,1,0,0-5.778Z" transform="translate(-0.001 -130.731)"/>
    <path id="Path_10" data-name="Path 10" class="cls-1" d="M191.64,137.726a48.923,48.923,0,0,1-21.6-4.417,63.616,63.616,0,0,0-10.141-3.439,28.284,28.284,0,0,0-55.142,1.516c-1.215-.038-2.786-.043-4.656.045L89.573,105.853a12.626,12.626,0,0,0-1.149-2.165,12.5,12.5,0,0,0-10.767-5.6l-27.864.652a12.552,12.552,0,0,0,.624,25.1l19.23-.44,3.067,7.449a55.307,55.307,0,0,0-17.19-2.376,54.465,54.465,0,0,0-23.777,4.844,48.924,48.924,0,0,1-21.593,4.416,64.493,64.493,0,0,1-6.956-.35,2.889,2.889,0,0,0-.618,5.745,70.363,70.363,0,0,0,7.574.383,54.469,54.469,0,0,0,23.777-4.844,48.923,48.923,0,0,1,21.593-4.416c9.027,0,14.245,1.533,18.742,3.271A77.045,77.045,0,0,0,43.982,161.5a56.009,56.009,0,0,1-10.049-3.334,54.476,54.476,0,0,0-23.776-4.842,70.294,70.294,0,0,0-7.578.383,2.889,2.889,0,1,0,.618,5.745,64.722,64.722,0,0,1,6.96-.35,48.954,48.954,0,0,1,21.593,4.414,54.483,54.483,0,0,0,23.78,4.843,54.482,54.482,0,0,0,23.776-4.842A48.944,48.944,0,0,1,100.9,159.1a48.947,48.947,0,0,1,21.593,4.414,54.476,54.476,0,0,0,23.776,4.842,59.586,59.586,0,0,0,13.79-1.441,2.889,2.889,0,1,0-1.329-5.623,53.918,53.918,0,0,1-12.46,1.286q-.989,0-1.916-.024a28.316,28.316,0,0,0,16.431-25.671c0-.276-.013-.549-.021-.824a69.414,69.414,0,0,1,7.095,2.593,54.454,54.454,0,0,0,23.78,4.845,2.888,2.888,0,1,0,0-5.777Zm-90.739,15.6a54.481,54.481,0,0,0-23.776,4.842,48.944,48.944,0,0,1-21.593,4.414c-1.76,0-3.37-.058-4.861-.164a70.458,70.458,0,0,1,26.814-19.992l.987,2.4a2.889,2.889,0,0,0,5.343-2.2L74.236,119.36a2.883,2.883,0,0,0-2.737-1.788l-21.219.485a6.774,6.774,0,0,1-.346-13.544L77.8,103.86a6.766,6.766,0,0,1,6.433,4.192l12.194,29.615a6.806,6.806,0,0,1-3.563,8.791,2.889,2.889,0,1,0,2.3,5.3,12.626,12.626,0,0,0,7.158-14.615c.711-.01,1.349,0,1.907.008a28.13,28.13,0,0,0,5.688,16.734A67.038,67.038,0,0,0,100.9,153.327Zm31.6,6.067a22.488,22.488,0,0,1-17.815-36.234l5.328,5.328a9.008,9.008,0,0,0,7.815,13.017,9.015,9.015,0,0,0,13.017,7.815l5.383,5.383A22.388,22.388,0,0,1,132.5,159.394Zm-6.7-29.2a3.254,3.254,0,1,1,0,4.6A3.244,3.244,0,0,1,125.8,130.191Zm8.742,8.742a3.254,3.254,0,1,1,0,4.6A3.244,3.244,0,0,1,134.546,138.932Zm15.771,11.686-5.383-5.383a9.008,9.008,0,0,0-7.815-13.017A9.008,9.008,0,0,0,124.1,124.4l-5.328-5.329a22.488,22.488,0,0,1,31.543,31.544Z" transform="translate(0)"/>
    <path id="Path_11" data-name="Path 11" class="cls-1" d="M317.922,221.623a2.887,2.887,0,1,0-.773,3.2A2.91,2.91,0,0,0,317.922,221.623Z" transform="translate(-193.674 -75.484)"/>
  </g>
</svg>
