<svg xmlns="http://www.w3.org/2000/svg" viewBox="12658 3549 126.539 125">
  <defs>
    <style>
      .cls-1 {
        fill: #2EA32A;
      }
    </style>
  </defs>
  <path id="get-camps" class="cls-1" d="M31.073,34.022h0c.045-.045.09-.093.134-.141A18.2,18.2,0,0,0,5.462,8.137c-.044.04-.086.08-.127.121l-.013.012-.01.011c-.042.042-.084.087-.126.132A18.207,18.207,0,0,0,31.073,34.022ZM8.714,11.661c1.28-.109,5.955,1.717,11.6,7.365s7.467,10.322,7.365,11.6c-1.287.1-5.955-1.718-11.6-7.365S8.612,12.943,8.714,11.661Zm19.024-.056a13.508,13.508,0,0,1,3.24,13.873c-.021-.044-.041-.087-.063-.132a38.8,38.8,0,0,0-7.262-9.656A38.8,38.8,0,0,0,14,8.429l-.132-.063a13.509,13.509,0,0,1,13.873,3.24ZM5.423,16.822c.02.041.038.081.059.123A38.8,38.8,0,0,0,12.744,26.6,38.8,38.8,0,0,0,22.4,33.862l.132.064a13.491,13.491,0,0,1-17.108-17.1Zm121.1,58.955a2.359,2.359,0,0,0-1.008-1.826,17.581,17.581,0,0,0-18.445-1.1,17.579,17.579,0,0,0-15.1-10.647,2.354,2.354,0,0,0-1.927.8,17.7,17.7,0,0,0-1.251,21.722A15.435,15.435,0,0,1,78.709,94.2,16.338,16.338,0,0,1,63.293,90.98a20.427,20.427,0,0,1-5.981-14.449V60.817c0-6.733-2.945-12.127-8.3-15.187a18.733,18.733,0,0,0-17.061-.616,11.9,11.9,0,0,0-3.162-1.008,15.5,15.5,0,0,0-6.938.176c-4.286,1.236-6.412,4.645-5.85,9.363-.92,4.434,1.6,9.153,6.9,12.926V77.078a46.993,46.993,0,0,0,7.015,24.791,15.314,15.314,0,0,0-8.755,20.044,2.359,2.359,0,0,0,1.555,1.391,15.5,15.5,0,0,0,4.164.573,15.355,15.355,0,0,0,14.149-9.55q1.583,1.248,3.264,2.359a15.383,15.383,0,0,0,14.739,11.252,15.5,15.5,0,0,0,4.165-.573,2.36,2.36,0,0,0,1.555-1.391,15.334,15.334,0,0,0-6.8-19.144,2.359,2.359,0,1,0-2.28,4.13,10.62,10.62,0,0,1,5.091,12.119A10.616,10.616,0,0,1,48.7,114.81c-.009-.051-.02-.1-.032-.153a10.589,10.589,0,0,1,.576-6.018,2.359,2.359,0,1,0-4.375-1.762,15.512,15.512,0,0,0-.983,3.694,43.247,43.247,0,0,1-3.721-3.311A42.424,42.424,0,0,1,27.623,77.078V67.371a13.865,13.865,0,0,0,8.706-5.357A2.359,2.359,0,0,0,32.544,59.2a8.983,8.983,0,0,1-6.605,3.635c-2.773-1.908-4.58-4.065-5.176-6.086a11.424,11.424,0,0,0,12.929-7.335,14.138,14.138,0,0,1,12.982.312c3.819,2.184,5.921,6.123,5.921,11.091V76.532a25.116,25.116,0,0,0,7.439,17.861c.051.051.1.1.16.146A20.989,20.989,0,0,0,80.1,98.709,20.081,20.081,0,0,0,93.6,85.173l.012-.032a2.359,2.359,0,0,0-.368-2.322,12.988,12.988,0,0,1-.4-15.773,12.88,12.88,0,0,1,9.961,7.842,13.017,13.017,0,0,1,.68,2.143,2.359,2.359,0,0,0,3.779,1.324,13.067,13.067,0,0,1,1.867-1.251,12.883,12.883,0,0,1,12.678.083A12.983,12.983,0,0,1,111.762,89.24a2.358,2.358,0,0,0-1.722,1.593c-.042.133-.086.265-.131.389a43.029,43.029,0,0,1-39.517,28.033,2.359,2.359,0,0,0,.031,4.717h.033a47.748,47.748,0,0,0,43.638-30.478A17.7,17.7,0,0,0,126.52,75.777ZM37.171,110.924a10.593,10.593,0,0,1-12.014,8.093,10.6,10.6,0,0,1,7.566-13.1C33.981,107.55,37.058,110.814,37.171,110.924ZM21.515,52.092a6.828,6.828,0,0,1-.881-.249,2.9,2.9,0,0,1,1.417-2.661c1.882-1.124,4.971-.835,6.733-.35A6.746,6.746,0,0,1,21.515,52.092Zm23.423,4.445A2.358,2.358,0,0,1,41.6,56.45l-.375-.4a2.359,2.359,0,0,1,3.422-3.248l.375.4A2.359,2.359,0,0,1,44.938,56.537Zm31.074,57.6a2.359,2.359,0,0,1,1.787-2.817,33.525,33.525,0,0,0,11.938-5.28c5.724-4,10.619-10.386,12.474-16.27a2.359,2.359,0,0,1,4.5,1.418c-2.18,6.918-7.648,14.091-14.27,18.719a38.222,38.222,0,0,1-13.61,6.017,2.356,2.356,0,0,1-2.817-1.787Zm-7.8.339a2.358,2.358,0,0,1,2.359-2.359q.278,0,.554,0h.04a2.359,2.359,0,0,1,.039,4.717q-.316.006-.634.005A2.358,2.358,0,0,1,68.214,114.48ZM36.962,78.511A33.222,33.222,0,0,0,44.043,99.1a2.358,2.358,0,1,1-3.722,2.9,37.9,37.9,0,0,1-8.076-23.483,2.359,2.359,0,0,1,4.717,0Z" transform="translate(12658 3546.063)"/>
</svg>
