<svg xmlns="http://www.w3.org/2000/svg" viewBox="13609 3549 125 125">
  <defs>
    <style>
      .cls-1 {
        fill: #fff;
      }
    </style>
  </defs>
  <g id="get-service" transform="translate(13609 3549)">
    <path id="Path_19" data-name="Path 19" class="cls-1" d="M122.852,108.43,95.432,81.01l1.737-4.632a2.354,2.354,0,0,0-.54-2.491L92.539,69.8a2.354,2.354,0,0,0-3.329,0l-5.14,5.14L73.324,64.19,97.15,40.368A20.936,20.936,0,0,1,105.52,35.3a18.206,18.206,0,0,0,7.26-4.439,18.166,18.166,0,0,0-.424-26.1A2.354,2.354,0,0,0,108.5,5.773l-2.985,9.569a4.637,4.637,0,1,1-8.853-2.763l2.95-9.459A2.354,2.354,0,0,0,96.987.1a18.006,18.006,0,0,0-9.026,4.249,18.207,18.207,0,0,0-6.08,15.686,20.132,20.132,0,0,1-5.919,16.5L60.815,51.682l-32.7-32.7-.593-6.414a2.354,2.354,0,0,0-1.093-1.778L9.8.361A2.354,2.354,0,0,0,6.887.69l-6.2,6.2A2.353,2.353,0,0,0,.36,9.8L10.786,26.425a2.353,2.353,0,0,0,1.777,1.093l6.414.593L51.683,60.817,27.858,84.638a20.948,20.948,0,0,1-8.375,5.07,18.164,18.164,0,0,0-6.836,30.538,2.354,2.354,0,0,0,3.858-1.014l2.988-9.567a4.638,4.638,0,0,1,5.717-3.075l.091.031a4.644,4.644,0,0,1,3.045,5.808l-2.95,9.456a2.354,2.354,0,0,0,2.625,3.024,18.127,18.127,0,0,0,15.1-19.937,20.122,20.122,0,0,1,5.919-16.5L64.191,73.325,74.936,84.07,69.8,89.21a2.355,2.355,0,0,0,0,3.329l4.091,4.092a2.355,2.355,0,0,0,2.491.54l4.633-1.737,27.419,27.42a7.355,7.355,0,0,0,10.389,0l4.034-4.034A7.356,7.356,0,0,0,122.852,108.43ZM79.291,39.863A24.815,24.815,0,0,0,86.56,19.508,13.5,13.5,0,0,1,91.07,7.88a13.19,13.19,0,0,1,2.7-1.836l-1.6,5.132a9.345,9.345,0,1,0,17.842,5.566l1.663-5.331a13.461,13.461,0,0,1-7.595,19.4A25.656,25.656,0,0,0,93.82,37.039L70,60.86l-5.851-5.851ZM45.715,85.141a24.8,24.8,0,0,0-7.268,20.353,13.519,13.519,0,0,1-4.507,11.632,13.24,13.24,0,0,1-2.7,1.834l1.6-5.13a9.358,9.358,0,0,0-6.01-11.662c-.042-.016-.085-.031-.129-.044a9.345,9.345,0,0,0-11.7,6.14l-1.665,5.331a13.467,13.467,0,0,1,7.593-19.405,25.675,25.675,0,0,0,10.26-6.222L55.012,64.145,60.863,70Zm-24.247-61.2a2.356,2.356,0,0,0-2.443-.557l-4.87-.45L5.345,8.89,8.89,5.345l14.048,8.811.45,4.871a2.354,2.354,0,0,0,.557,2.442l56.8,56.8-2.477,2.477ZM80.3,90.671l-4.155,1.558-1.355-1.355L90.874,74.789l1.355,1.355L90.671,80.3Zm39.225,24.818-4.034,4.034a2.642,2.642,0,0,1-3.731,0L84.931,92.7,92.7,84.931l26.827,26.827A2.641,2.641,0,0,1,119.523,115.489Z" transform="translate(0 -0.001)"/>
  </g>
</svg>
