<svg xmlns="http://www.w3.org/2000/svg" viewBox="13116 1237 160 129.062">
  <defs>
    <style>
      .cls-1 {
        fill: #0a1fa8;
      }
    </style>
  </defs>
  <g id="get-diving" transform="translate(13116 1187.499)">
    <path id="Path_12" data-name="Path 12" class="cls-1" d="M36.564,275.346a11.9,11.9,0,1,0-17.133,5.586l.52,3.936a4.537,4.537,0,0,0,4.485,3.943,4.587,4.587,0,0,0,.6-.04l5.021-.663a4.549,4.549,0,0,0,3.9-5.093l-.447-3.387A11.867,11.867,0,0,0,36.564,275.346ZM24.578,284.1l-.2-1.511a11.682,11.682,0,0,0,4.738-.48l.181,1.368Zm7.663-10.571h0a7.229,7.229,0,1,1-3.862-9.459A7.174,7.174,0,0,1,32.241,273.534Z" transform="translate(-9.409 -143.906)"/>
    <path id="Path_13" data-name="Path 13" class="cls-1" d="M200.531,136.237l-9.221-6.611a7.264,7.264,0,0,0-8.331-.079L157.695,146.96l-11.341-2.765,13.2-5.134a7.291,7.291,0,0,0,4.051-3.937l12.031-28.487,3.158.935a7.253,7.253,0,0,0,4.114-13.911l-9.369-2.775a7.241,7.241,0,0,0-8.734,4.132l-4.946,11.711a2.344,2.344,0,0,0,4.318,1.824l4.946-11.712a2.557,2.557,0,0,1,3.084-1.46l9.369,2.775a2.568,2.568,0,0,1,.5,4.716,2.537,2.537,0,0,1-1.947.205l-5.168-1.53a2.343,2.343,0,0,0-2.825,1.335L159.287,133.3a2.576,2.576,0,0,1-1.432,1.392l-20.1,7.818h0l-14.571,5.667a2.559,2.559,0,0,1-.59.151l-20.562,2.729a2.344,2.344,0,0,0-.571,4.5l10.933,4.425a2.58,2.58,0,0,1,.931.648l17.351,19.018a2.572,2.572,0,0,1-.163,3.626,2.556,2.556,0,0,1-3.617-.164l-16.6-18.2a2.343,2.343,0,0,0-.853-.593l-27.13-10.98a2.567,2.567,0,0,1,.62-4.922l11.251-1.488,9.671-1.279h0l13.7-1.812c.207-.027.412-.061.615-.1l3.166-.42a2.341,2.341,0,0,0,.541-.139l32.191-12.519a2.343,2.343,0,0,0,1.309-1.273l4.548-10.768a2.344,2.344,0,0,0-4.318-1.824l-4.162,9.855-24.374,9.479a11.738,11.738,0,0,0-12.6-15.578,2.344,2.344,0,1,0,.615,4.647,7.056,7.056,0,0,1,2.3,13.915l-11.832,1.571L103.715,126.7a2.343,2.343,0,0,0-.648-4.641l-2.287.3h0l-13.525,1.789h0l-9.287,1.228a11.748,11.748,0,0,0-1.466,23,7.179,7.179,0,0,0-.414,3.523c0,.012,0,.023,0,.034l3.454,25.4-9.317,19.019a7.249,7.249,0,1,0,13.017,6.385l2.48-5.063a2.344,2.344,0,0,0-4.21-2.062l-2.48,5.063a2.562,2.562,0,1,1-4.6-2.262l9.63-19.66a2.345,2.345,0,0,0,.217-1.347L81.66,158.132l5.47,2.214,2.428,17.86a2.556,2.556,0,0,1-.239,1.476l-3.273,6.681a2.344,2.344,0,1,0,4.21,2.063l3.272-6.681a7.228,7.228,0,0,0,.674-4.171l-2.067-15.2,15.052,6.092,16.241,17.8a7.25,7.25,0,1,0,10.706-9.78l-17.35-19.017a7.285,7.285,0,0,0-2.636-1.834l-2.708-1.1,10.5-1.393a2.364,2.364,0,0,0,.327.109l35.149,8.569a7.218,7.218,0,0,0,1.713.207,7.248,7.248,0,0,0,4.113-1.279L187,144.385l5.083,3.645a7.252,7.252,0,0,0,8.444-11.793ZM99.068,127.318l1.846,13.983-8.877,1.179-1.847-13.987ZM75.216,142.625a7.058,7.058,0,0,1,3.364-12.6l6.964-.921L87.391,143.1l-4.669.62-2.291.3A7.01,7.01,0,0,1,75.216,142.625Zm123.176,1a2.558,2.558,0,0,1-3.572.592l-6.422-4.6a2.343,2.343,0,0,0-2.7-.026l-25.121,17.3a2.571,2.571,0,0,1-1.115.429,2.532,2.532,0,0,1-.941-.05l-28.145-6.862,8.347-3.247,18.876,4.6a2.342,2.342,0,0,0,1.884-.347l26.149-18.007a2.563,2.563,0,0,1,2.941.028l9.221,6.611A2.571,2.571,0,0,1,198.391,143.628Z" transform="translate(-46.589 -28.246)"/>
    <path id="Path_14" data-name="Path 14" class="cls-1" d="M157.656,49.5a12.072,12.072,0,0,0-7.843,2.774,7.832,7.832,0,0,1-10.2,0,12.471,12.471,0,0,0-15.684,0,7.83,7.83,0,0,1-10.2,0,12.47,12.47,0,0,0-15.684,0,7.829,7.829,0,0,1-10.2,0,12.469,12.469,0,0,0-15.683,0,7.828,7.828,0,0,1-10.2,0,12.469,12.469,0,0,0-15.683,0,7.829,7.829,0,0,1-10.2,0A12.066,12.066,0,0,0,28.227,49.5a12.069,12.069,0,0,0-7.842,2.774,7.465,7.465,0,0,1-5.1,1.89,7.465,7.465,0,0,1-5.1-1.89A12.067,12.067,0,0,0,2.344,49.5a2.344,2.344,0,1,0,0,4.688,7.464,7.464,0,0,1,5.1,1.89,12.068,12.068,0,0,0,7.842,2.774,12.068,12.068,0,0,0,7.842-2.774,7.829,7.829,0,0,1,10.2,0,12.469,12.469,0,0,0,15.683,0,7.829,7.829,0,0,1,10.2,0,12.469,12.469,0,0,0,15.683,0,7.828,7.828,0,0,1,10.2,0,12.469,12.469,0,0,0,15.683,0,7.83,7.83,0,0,1,10.2,0,12.469,12.469,0,0,0,15.683,0,7.831,7.831,0,0,1,10.2,0,12.472,12.472,0,0,0,15.685,0,7.47,7.47,0,0,1,5.1-1.89,2.344,2.344,0,0,0,0-4.687Z"/>
  </g>
</svg>
