<svg xmlns="http://www.w3.org/2000/svg" viewBox="13622 3220 131.974 125">
  <defs>
    <style>
      .cls-1 {
        fill: #fff;
      }
    </style>
  </defs>
  <path id="improve-your-skills" class="cls-1" d="M69.966,129.6a22.368,22.368,0,0,1-22.343-22.343V42.631a22.384,22.384,0,0,1,15.28-21.2,1.974,1.974,0,0,1,.155-.286l4-6.114a5.6,5.6,0,0,1-.822-.617,4.57,4.57,0,0,1-2.711.888H57.749a4.6,4.6,0,0,1-4.183-2.7H38.745a4.6,4.6,0,0,1-4.228,2.8H28.741a4.561,4.561,0,0,1-2.727-.9,5.644,5.644,0,0,1-.719.526l4,6.114a1.912,1.912,0,0,1,.161.3A22.385,22.385,0,0,1,44.686,42.631v64.63a22.343,22.343,0,0,1-44.686,0V42.631A22.385,22.385,0,0,1,15.229,21.449a1.848,1.848,0,0,1,.161-.3l4-6.114a5.6,5.6,0,0,1-.822-.617,4.57,4.57,0,0,1-2.711.888H10.082a4.592,4.592,0,1,1,0-9.184h5.775A4.567,4.567,0,0,1,18,6.65a5.626,5.626,0,0,1,8.715.042,4.573,4.573,0,0,1,2.024-.47h5.775a4.6,4.6,0,0,1,4.135,2.6H53.564a4.6,4.6,0,0,1,4.183-2.7h5.775a4.568,4.568,0,0,1,2.144.532,5.626,5.626,0,0,1,8.715.042,4.57,4.57,0,0,1,2.024-.47h5.775A4.6,4.6,0,0,1,86.5,9.264a53.025,53.025,0,0,1,18,9.114c8.758,6.8,19.2,19.632,19.2,42.177v43.726a10.162,10.162,0,1,1-3.787,0V60.556c0-16.807-5.925-29.959-17.61-39.089a50.108,50.108,0,0,0-16.151-8.358,4.594,4.594,0,0,1-3.976,2.3H76.406a4.563,4.563,0,0,1-2.727-.9,5.644,5.644,0,0,1-.719.526l4,6.114a1.848,1.848,0,0,1,.168.32A22.384,22.384,0,0,1,92.307,42.631v64.63A22.366,22.366,0,0,1,69.966,129.6ZM51.42,107.892a18.556,18.556,0,0,0,37.091,0Zm-47.623,0a18.556,18.556,0,0,0,37.091,0Zm118.015,0a6.375,6.375,0,1,0,6.375,6.375A6.382,6.382,0,0,0,121.812,107.892Zm-70.4-3.787H88.521V49.574H51.41Zm-47.623,0H40.9V49.574H3.787ZM51.41,45.787H88.521V42.631a18.556,18.556,0,1,0-37.112,0Zm-47.623,0H40.9V42.631a18.556,18.556,0,1,0-37.112,0Zm64.356-25.5h3.732l-1.866-2.853Zm-47.666,0h3.732l-1.866-2.853Zm49.532-11.9a1.846,1.846,0,1,0,1.812,2.2c.006-.13.017-.257.034-.382A1.847,1.847,0,0,0,70.009,8.391Zm-47.666,0a1.846,1.846,0,1,0,1.812,2.2c.006-.127.017-.252.033-.376A1.848,1.848,0,0,0,22.343,8.391ZM75.6,10.882a.806.806,0,0,0,.8.736h5.775a.805.805,0,1,0,0-1.61H76.407a.807.807,0,0,0-.777.595Q75.621,10.743,75.6,10.882Zm-47.666,0a.806.806,0,0,0,.8.738h5.775a.805.805,0,1,0,0-1.61H28.741a.806.806,0,0,0-.777.6C27.958,10.7,27.95,10.789,27.939,10.88Zm29.81-.974a.805.805,0,1,0,0,1.61h5.775a.805.805,0,1,0,0-1.61Zm-47.666,0a.805.805,0,0,0,0,1.61h5.775a.805.805,0,1,0,0-1.61ZM121.812,118.938a4.671,4.671,0,1,1,4.671-4.671A4.677,4.677,0,0,1,121.812,118.938Zm0-5.555a.884.884,0,1,0,.884.884A.885.885,0,0,0,121.812,113.383Z" transform="translate(13622 3215.396)"/>
</svg>
