<svg xmlns="http://www.w3.org/2000/svg" viewBox="13106.001 4204 177.082 125">
  <defs>
    <style>
      .cls-1 {
        fill: #fff;
      }
    </style>
  </defs>
  <g id="quote" transform="translate(13106 4194.588)">
    <path id="Path_20" data-name="Path 20" class="cls-1" d="M77.331,55.935c-.357-3.856-.084-14.337,9.957-28.913a2.765,2.765,0,0,0-.322-3.526c-4.094-4.094-6.628-6.677-8.406-8.485-2.338-2.383-3.4-3.469-4.967-4.886a2.773,2.773,0,0,0-3.675-.035c-17.5,15.229-36.941,46.7-34.128,85.251,1.648,22.638,18.161,39.07,39.262,39.07a39.272,39.272,0,0,0,2.278-78.477Zm-2.278,72.943c-18.121,0-32.309-14.273-33.744-33.936v0c-3.164-43.361,22.611-71.525,30.4-78.983.759.748,1.627,1.629,2.9,2.932,1.54,1.567,3.648,3.713,6.836,6.912-12.189,18.78-9.89,32.16-8.882,34.079A2.866,2.866,0,0,0,75.053,61.4a33.737,33.737,0,1,1,0,67.474Z" transform="translate(62.758)"/>
    <path id="Path_21" data-name="Path 21" class="cls-1" d="M41.818,55.934c-.359-3.845-.095-14.318,9.957-28.913a2.768,2.768,0,0,0-.322-3.526c-4.086-4.086-6.617-6.666-8.393-8.474-2.345-2.389-3.416-3.478-4.977-4.9a2.779,2.779,0,0,0-3.675-.038C16.907,25.317-2.535,56.78.273,95.342v0c1.654,22.635,18.169,39.067,39.27,39.067a39.272,39.272,0,0,0,2.275-78.477Zm-2.275,72.943c-18.118,0-32.314-14.273-33.752-33.938v0C2.635,51.571,28.41,23.412,36.2,15.957c.762.748,1.632,1.635,2.913,2.94,1.537,1.567,3.642,3.71,6.826,6.9-12.189,18.782-9.89,32.16-8.882,34.076A2.872,2.872,0,0,0,39.543,61.4a33.737,33.737,0,1,1,0,67.474Z" transform="translate(0 0)"/>
  </g>
</svg>
